<svg version="1.1" id="Layer_1" x="0px" y="0px" width="1000" height="363.1572" viewBox="0 0 1000 363.15719" enable-background="new 0 0 1000 371.126" xml:space="preserve" sodipodi:docname="Stranger_Things.svg" inkscape:version="1.1.2 (b8e25be833, 2022-02-05)" xmlns:inkscape="http://www.inkscape.org/namespaces/inkscape" xmlns:sodipodi="http://sodipodi.sourceforge.net/DTD/sodipodi-0.dtd" xmlns="http://www.w3.org/2000/svg" xmlns:svg="http://www.w3.org/2000/svg"><defs id="defs7"/><sodipodi:namedview id="namedview5" pagecolor="#ffffff" bordercolor="#666666" borderopacity="1.0" inkscape:pageshadow="2" inkscape:pageopacity="0.0" inkscape:pagecheckerboard="0" showgrid="false" inkscape:zoom="0.5" inkscape:cx="509" inkscape:cy="198" inkscape:window-width="1366" inkscape:window-height="705" inkscape:window-x="-8" inkscape:window-y="-8" inkscape:window-maximized="1" inkscape:current-layer="Layer_1"/>

<g id="g5655"><path style="font-weight:bold;font-size:242.372px;line-height:1.25;font-family:'ITC Benguiat Std';-inkscape-font-specification:'ITC Benguiat Std Bold';text-align:center;text-anchor:middle;fill:#dd0301;fill-opacity:1;stroke-width:5.13547" d="m 827.07812,238.42188 v 13.08007 H 1000 v -13.08007 z" id="path5618"/><path style="font-weight:bold;font-size:242.372px;line-height:1.25;font-family:'ITC Benguiat Std';-inkscape-font-specification:'ITC Benguiat Std Bold';text-align:center;text-anchor:middle;fill:#dd0301;fill-opacity:1;stroke-width:5.13547" d="m 0,238.42188 v 13.08007 h 148.10547 v -13.08007 z" id="path5616" sodipodi:nodetypes="ccccc"/><path style="font-weight:bold;font-size:242.372px;line-height:1.25;font-family:'ITC Benguiat Std';-inkscape-font-specification:'ITC Benguiat Std Bold';text-align:center;text-anchor:middle;fill:#dd0301;fill-opacity:1;stroke-width:5.13547" d="m 473.54102,215.85938 v 5.46289 c 7.49809,-0.21853 10.05859,6.55744 10.05859,21.85546 v 89.16602 c 0,15.29802 -2.5605,22.07205 -10.05859,21.85352 v 5.46289 h 35.47851 v -5.46289 c -7.49809,0.21853 -9.875,-6.5555 -9.875,-21.85352 v -90.47852 l 54.31445,74.74219 c 5.48637,7.43046 10.78907,14.64274 10.78907,25.13281 0,7.43046 -3.47404,11.36432 -9.32617,12.45704 v 5.24414 h 36.75976 v -5.46289 c -7.498,0.21856 -10.05859,-6.55548 -10.05859,-21.85352 v -88.94727 c 0,-15.29802 2.56059,-22.07399 10.05859,-21.85546 v -5.46289 h -36.75976 v 5.46289 c 7.49806,-0.21853 11.15625,6.55744 11.15624,21.85546 v 27.53516 l -20.11718,-29.50195 c -2.37747,-3.27815 -7.31446,-9.39693 -7.31446,-13.98633 0,-3.4967 2.19358,-5.02816 4.75391,-5.90234 v -5.46289 z" id="path5614"/><path style="font-weight:bold;font-size:242.372px;line-height:1.25;font-family:'ITC Benguiat Std';-inkscape-font-specification:'ITC Benguiat Std Bold';text-align:center;text-anchor:middle;fill:#dd0301;fill-opacity:1;stroke-width:5.13547" d="m 409.98438,215.85938 v 5.46289 c 7.49808,-0.21853 10.05859,6.55744 10.05859,21.85546 v 89.16602 c 0,15.29802 -2.56051,22.07205 -10.05859,21.85352 v 5.46289 h 57.60742 v -5.46289 c -7.49809,0.21853 -10.0586,-6.5555 -10.0586,-21.85352 v -89.16602 c 0,-15.29802 2.56051,-22.07399 10.0586,-21.85546 v -5.46289 z" id="path5612"/><path style="font-weight:bold;font-size:242.372px;line-height:1.25;font-family:'ITC Benguiat Std';-inkscape-font-specification:'ITC Benguiat Std Bold';text-align:center;text-anchor:middle;fill:#dd0301;fill-opacity:1;stroke-width:5.13547" d="m 270.31445,215.85938 v 5.46289 c 7.49809,-0.21853 10.0586,6.55744 10.0586,21.85546 v 89.16602 c 0,15.29802 -2.56051,22.07205 -10.0586,21.85352 v 5.46289 h 58.33789 v -5.46289 C 320.42273,353.97871 317.86328,347.4222 317.86328,331.25 v -61.84766 h 36.39258 V 331.25 c 0,16.1722 -2.55946,22.72871 -10.78906,22.94727 v 5.46289 h 58.33789 v -5.46289 c -7.49807,0.21853 -10.0586,-6.5555 -10.0586,-21.85352 v -89.16602 c 0,-15.29802 2.56053,-22.07399 10.0586,-21.85546 v -5.46289 H 343.4668 v 5.46289 c 7.49807,-0.21853 10.78906,6.55744 10.78906,21.85546 v 11.80079 h -36.39258 v -11.80079 c 0,-15.29802 3.29096,-22.07399 10.78906,-21.85546 v -5.46289 z" id="path5610"/><path style="font-weight:bold;font-size:242.372px;line-height:1.25;font-family:'ITC Benguiat Std';-inkscape-font-specification:'ITC Benguiat Std Bold';text-align:center;text-anchor:middle;fill:#dd0301;fill-opacity:1;stroke-width:5.13547" d="m 814.85938,211.70703 c -2.5603,3.71524 -7.6802,5.2461 -11.3379,5.24609 -3.8404,0 -14.81299,-4.58984 -33.46679,-4.58984 -15.9104,0 -46.08594,8.74036 -46.08594,48.07813 0,10.05298 4.20732,20.1056 10.79102,26.44336 5.6692,5.46357 14.26349,9.18022 21.21289,11.80273 l 18.4707,7.21094 c 7.6811,3.0596 18.83789,6.12075 18.83789,18.14062 0,18.1391 -14.26527,21.63477 -26.70117,21.63477 -18.9461,0 -34.55777,-14.41606 -40.57617,-34.87305 h -5.47461 l 3.43945,52.13867 c 2.7432,-3.27815 5.6687,-5.24609 9.875,-5.24609 3.4748,0 8.59561,1.31138 12.07031,2.18555 9.144,1.9669 16.27672,3.27734 25.60352,3.27734 37.4903,0 60.5332,-16.6066 60.5332,-52.88477 0,-18.35763 -13.71532,-33.00168 -30.35742,-38.90234 l -21.39844,-7.64844 c -6.7665,-2.40398 -19.01953,-5.68221 -19.01953,-16.60937 -0.5487,-12.45697 11.15599,-17.26563 20.11719,-17.26563 12.181,0 24.35613,9.69837 31.04883,22.15235 h 6.45703 z" id="path5608"/><path style="font-weight:bold;font-size:242.372px;line-height:1.25;font-family:'ITC Benguiat Std';-inkscape-font-specification:'ITC Benguiat Std Bold';text-align:center;text-anchor:middle;fill:#dd0301;fill-opacity:1;stroke-width:5.13547" d="m 165.04492,211.0957 -7.69922,42.79883 h 4.73438 c 5.62518,-16.74054 17.89477,-25.91089 33.84375,-26.31641 v 102.73047 c 0,16.2564 -2.64477,23.48126 -14.92578,23.70703 v 5.64649 h 68.58593 v -5.64649 c -12.28101,-0.22577 -14.92773,-7.45063 -14.92773,-23.70703 V 227.57812 c 16.58196,1.21319 26.78812,10.05463 33.35547,26.31641 h 5.08789 L 265.875,211.0957 Z" id="path5606"/><path style="font-weight:bold;font-size:242.372px;line-height:1.25;font-family:'ITC Benguiat Std';-inkscape-font-specification:'ITC Benguiat Std Bold';text-align:center;text-anchor:middle;fill:#dd0301;fill-opacity:1;stroke-width:5.13547" d="m 696.1582,210.83398 c -2.3775,3.93378 -6.03529,6.11915 -10.05859,6.11914 -2.7432,0 -5.48737,-0.65492 -8.23047,-1.31054 -9.327,-2.18544 -14.8133,-3.27735 -28.5293,-3.27735 -27.7835,0 -52.17403,12.75095 -62.30273,39.56446 v 59.5625 c 4.2672,12.51164 11.12729,23.80719 20.05859,31.99804 15.5448,14.2053 34.92913,16.17188 53.76563,16.17188 h 58.88672 v -5.46289 c -2.9261,-1.31126 -6.033,-2.62245 -7.4961,-6.11914 -1.8287,-4.15232 -1.64648,-14.42446 -1.64648,-19.23242 v -25.35157 c 0,-11.58279 -1.46292,-24.47543 11.52148,-25.34961 v -5.46289 h -58.70507 v 5.46289 c 12.07,0.65563 11.15624,12.23865 11.15624,22.94727 v 20.10547 c 0,5.24503 0.18289,12.2387 -2.01171,16.82812 -2.3775,5.24502 -8.04784,7.21094 -12.80274,7.21094 -25.9689,0 -37.48828,-35.18496 -37.48828,-61.41016 0,-27.09935 9.87349,-55.07226 36.02539,-55.07226 17.9223,0 33.10185,14.4227 39.68555,33.87305 l 3.83984,-0.6543 z" id="path5604"/><path id="path5602" style="font-weight:bold;font-size:242.372px;line-height:1.25;font-family:'ITC Benguiat Std';-inkscape-font-specification:'ITC Benguiat Std Bold';text-align:center;text-anchor:middle;fill:#dd0301;fill-opacity:1;stroke-width:5.13547" d="m 231.66406,34.775391 v 5.464843 c 7.49807,-0.21853 10.05664,6.555496 10.05664,21.853516 v 89.16602 c 0,15.29804 -2.55857,22.07205 -10.05664,21.85351 v 5.46484 h 57.42383 v -5.46484 c -7.49808,0.21854 -10.05859,-6.55547 -10.05859,-21.85351 v -38.24415 l 6.40039,-2.62304 c 7.68097,10.70862 25.96875,42.17862 25.96875,55.50976 0,5.90067 -3.29181,6.99239 -7.49805,7.21094 v 5.46484 h 79.35938 v -5.46484 c -4.93775,-0.65563 -8.41211,-2.84038 -8.41211,-9.61523 0,-4.80794 2.19444,-13.11177 3.47461,-17.70117 l 6.58398,-22.29297 c 10.24128,-0.65566 19.2008,2.62379 27.61328,9.61718 7.13232,5.68212 15.36328,16.60779 15.36328,27.31641 0,7.43047 -4.20643,12.23869 -10.05859,12.67578 v 5.46484 h 88.04297 v -5.46484 c -7.49808,0.21854 -9.875,-6.55547 -9.875,-21.85351 V 60.783203 l 54.31445,74.740237 c 5.48637,7.43047 10.79102,14.64469 10.79102,25.13476 0,7.43047 -3.47591,11.36237 -9.32813,12.45508 v 5.2461 h 36.75977 v -5.4629 c -7.49802,0.21854 -10.0586,-6.55744 -10.0586,-21.85546 V 62.09375 c 0,-15.29802 2.56058,-22.072046 10.0586,-21.853516 v -5.464843 h -36.75977 v 5.464843 c 7.49807,-0.21853 11.15625,6.555496 11.15625,21.853516 V 89.630859 L 542.81055,60.126953 c -2.37742,-3.27816 -7.31641,-9.396918 -7.31641,-13.986328 0,-3.4967 2.19553,-5.026211 4.75586,-5.900391 v -5.464843 h -69.85938 v 5.464843 c 7.49807,-0.21853 10.05665,6.555496 10.05665,21.853516 v 89.16602 c 0,10.40887 -1.1891,16.8642 -4.3086,19.86328 -5.94415,-4.48953 -8.17356,-15.2541 -10.40039,-22.70508 -12.61871,-44.58282 -28.5293,-99.873775 -28.5293,-102.714845 0,-3.71524 1.46383,-5.025801 4.20704,-5.462891 v -5.464843 h -53.4004 v 5.464843 c 2.56032,0.43709 4.02149,2.184731 4.02149,5.462891 0,3.05961 -2.19301,9.178261 -3.10742,11.800781 L 360.2168,148.19922 c -1.6869,4.8805 -3.47247,10.26191 -5.98047,14.82226 -1.09498,-2.59635 -1.95,-5.34326 -2.60352,-7.82812 -6.4008,-23.38412 -17.00984,-45.23929 -30.54297,-60.75586 12.07008,-7.43046 25.97071,-19.450754 25.97071,-37.589844 0,-8.74174 -4.20662,-15.077529 -10.60743,-18.574218 -6.94945,-3.27815 -14.99605,-3.279517 -22.49414,-3.498047 z m 61.26367,14.423828 c 9.144,0 15.36133,5.682405 15.36133,16.828125 0,18.57616 -16.82392,27.317973 -29.25976,31.033203 v -32.34375 c 0,-3.27815 -0.36522,-8.740771 1.64648,-11.363281 2.74319,-3.27814 8.59435,-4.154297 12.25195,-4.154297 z m 109.16993,14.642578 13.89843,51.796873 c -7.31519,-6.11922 -16.27593,-10.92752 -25.41992,-10.70898 z"/><path id="path5600" style="font-weight:bold;font-size:242.372px;line-height:1.25;font-family:'ITC Benguiat Std';-inkscape-font-specification:'ITC Benguiat Std Bold';text-align:center;text-anchor:middle;fill:#dd0301;fill-opacity:1;stroke-width:5.13547" d="m 827.07812,33.9375 v 7.066406 c 9.69872,-0.28268 13.00977,8.481681 13.00977,28.269532 V 184.60742 c 0,19.78787 -3.31105,28.55221 -13.00977,28.26953 v 7.06641 h 74.27735 v -7.06641 c -9.6986,0.28268 -13.00977,-8.48166 -13.00977,-28.26953 v -49.46875 l 8.2793,-3.39258 c 9.9353,13.8515 33.58984,54.55707 33.58984,71.80079 0,7.63246 -4.25656,9.04738 -9.69726,9.33007 v 7.06641 H 1000 v -7.06641 c -10.4085,0 -15.14009,-13.28771 -17.74219,-23.18164 -8.2794,-30.24716 -21.9989,-58.5154 -39.5039,-78.58593 15.6125,-9.61124 33.58984,-25.158339 33.58984,-48.621099 0,-11.30734 -5.4414,-19.504413 -13.7207,-24.027343 -8.9891,-4.240252 -19.39721,-4.240748 -29.09571,-4.523438 z m 79.2461,18.65625 c 11.8277,0 19.86914,7.350698 19.86914,21.767578 0,24.02811 -21.76196,35.335002 -37.84766,40.140622 V 72.666016 c 0,-4.24027 -0.47319,-11.308982 2.12891,-14.701172 3.5484,-4.24026 11.11861,-5.371094 15.84961,-5.371094 z"/><path style="font-weight:bold;font-size:242.372px;line-height:1.25;font-family:'ITC Benguiat Std';-inkscape-font-specification:'ITC Benguiat Std Bold';text-align:center;text-anchor:middle;fill:#dd0301;fill-opacity:1;stroke-width:5.13547" d="m 126.7168,32.796875 -7.65625,42.568359 h 4.70898 c 5.59462,-16.64956 17.79588,-25.770528 33.6582,-26.173828 V 151.36328 c 0,16.16806 -2.62945,23.35357 -14.84375,23.57813 v 5.61523 h 68.2129 v -5.61523 c -12.21427,-0.22456 -14.84571,-7.41007 -14.84571,-23.57813 V 49.191406 c 16.49185,1.20659 26.64218,10.000408 33.17383,26.173828 h 5.06055 l -7.1875,-42.568359 z" id="path5592"/><path style="font-weight:bold;font-size:242.372px;line-height:1.25;font-family:'ITC Benguiat Std';-inkscape-font-specification:'ITC Benguiat Std Bold';text-align:center;text-anchor:middle;fill:#dd0301;fill-opacity:1;stroke-width:5.13547" d="m 817.13281,31.279297 c -3.4747,4.37086 -10.78933,3.496094 -15.36133,3.496094 h -83.02734 v 5.464843 c 7.498,-0.21853 10.05859,6.555496 10.05859,21.853516 v 89.16602 c 0,15.29804 -2.56059,22.07205 -10.05859,21.85351 v 5.46484 h 90.70898 c 2.0115,0 4.02267,4.2e-4 5.85157,0.4375 2.0117,0.21853 3.65799,1.09173 5.12109,3.0586 l 15.54492,-56.82031 -3.83984,-1.75 c -9.6925,23.8212 -24.69081,40.6504 -48.09961,40.65039 -14.4474,0 -17.73828,-5.68203 -17.73828,-20.54297 V 96.185547 h 4.9375 c 9.144,0 16.82473,-0.87341 23.95703,6.994143 1.3384,1.45415 2.55375,3.05717 3.65625,4.76953 l 7.24805,-0.86524 -5.46485,-37.697261 h -4.88086 c -2.0092,13.55552 -12.79061,12.376953 -23.59961,12.376953 h -5.85351 v -6.994141 c 0,-17.48346 -1.09603,-25.570312 16.82617,-25.570312 18.288,0 34.01466,12.67632 39.31836,33.875 l 4.02344,-1.53125 z" id="path5590"/><path style="font-weight:bold;font-size:242.372px;line-height:1.25;font-family:'ITC Benguiat Std';-inkscape-font-specification:'ITC Benguiat Std Bold';text-align:center;text-anchor:middle;fill:#dd0301;fill-opacity:1;stroke-width:5.13547" d="m 693.00391,29.75 c -2.3775,3.93379 -6.03334,6.119141 -10.05664,6.119141 -2.7432,0 -5.48727,-0.654927 -8.23047,-1.310547 -9.3269,-2.18544 -14.8134,-3.279297 -28.5293,-3.279297 -27.7836,0 -52.17403,12.752896 -62.30273,39.566406 V 130.4082 c 4.2672,12.51164 11.12739,23.8072 20.05859,31.99805 15.5449,14.2053 34.92892,16.17188 53.76562,16.17187 h 58.88672 v -5.46484 c -2.9262,-1.31126 -6.03504,-2.6205 -7.49804,-6.11719 -1.8288,-4.15232 -1.64454,-14.42446 -1.64454,-19.23242 v -25.35156 c 0,-11.58279 -1.46291,-24.477383 11.52149,-25.351563 v -5.462891 h -58.70508 v 5.462891 c 12.0701,0.65564 11.15625,12.238633 11.15625,22.947263 v 20.10547 c 0,5.24503 0.18093,12.24067 -2.01367,16.83008 -2.3775,5.24503 -8.04588,7.21094 -12.80078,7.21094 -25.969,0 -37.49024,-35.18693 -37.49024,-61.41211 0,-27.099363 9.87555,-55.072268 36.02735,-55.072268 17.9223,0 33.09999,14.422697 39.68359,33.873047 l 3.8418,-0.652344 z" id="path5588"/><path style="font-weight:bold;font-size:242.372px;line-height:1.25;font-family:'ITC Benguiat Std';-inkscape-font-specification:'ITC Benguiat Std Bold';text-align:center;text-anchor:middle;fill:#dd0301;fill-opacity:1;stroke-width:5.13547" d="M 59.136719,25.828125 C 38.585969,25.828125 0.02212,36.704408 0,86.423828 -0.0134,116.34613 16.203123,128.55033 40.720703,137.88086 l 23.857422,9.31445 c 9.92119,3.95196 24.332031,7.69908 24.332031,23.22461 0,23.42945 -17.808273,27.63867 -33.871094,27.63867 -23.69291,0 -35.889891,-18.72869 -43.513671,-42.26171 H 3.5507812 L 0,220.66797 c 3.54322,-4.23424 7.3228397,-6.46485 12.755859,-6.46485 4.48824,0 11.101724,1.69119 15.589844,2.82032 11.81091,2.54054 21.023203,4.23437 33.070313,4.23437 48.424604,0 78.189454,-21.76026 78.189454,-68.61914 0,-23.71173 -17.71506,-42.62642 -39.21094,-50.24805 L 72.753906,92.511719 C 64.013946,89.406609 48.51854,85.166881 48.1875,71.056641 47.80975,54.955371 62.597055,48.757812 74.171875,48.757812 c 15.73362,0 31.769335,13.862979 40.414065,29.949219 l 8.26367,-45.953125 c 0,0 -2.6071,2.026225 -9.82617,1.052735 -8.15452,-1.09965 -19.948591,-7.978516 -53.886721,-7.978516 z" id="path5586"/><path style="font-weight:bold;font-size:242.372px;line-height:1.25;font-family:'ITC Benguiat Std';-inkscape-font-specification:'ITC Benguiat Std Bold';text-align:center;text-anchor:middle;fill:#dd0301;fill-opacity:1;stroke-width:5.13547" d="M 0,3.125e-6 V 13.082034 l 975.9668,-3e-6 V 0 Z" id="path40713" sodipodi:nodetypes="ccccc"/></g></svg>